<?xml version="1.0" encoding="UTF-8"?>
<svg width="600px" height="600px" viewBox="0 0 600 600" version="1.1" xmlns="http://www.w3.org/2000/svg" xmlns:xlink="http://www.w3.org/1999/xlink">
    <title>drivers/battery/assets/icon</title>
    <g id="/drivers/battery/assets/icon" stroke="none" stroke-width="1" fill="none" fill-rule="evenodd">
        <g id="icon" transform="translate(72, -0)" fill="#000000" fill-rule="nonzero">
            <path d="M140.584728,0.044478361 C141.054031,0.0605387617 141.522792,0.0897772688 141.990453,0.132159293 L419.425829,25.2748455 C419.562723,25.2872516 419.699514,25.300783 419.836186,25.3154383 C428.317922,26.2249335 432.992816,27.0141859 437.584142,28.9788552 C445.326378,32.2963889 450.903784,38.4153203 453.941366,45.8685829 C455.166143,48.8737963 455.796,52.0881589 455.796,55.3333689 L455.796,542.101232 C455.796,548.372737 453.484731,554.139864 449.640768,558.558458 L449.478805,558.740767 L449.478898,559.799972 C449.478898,573.014036 439.232179,583.935845 426.093393,584.821042 L425.694371,584.844786 L132.954125,599.965919 C128.795711,600.180717 124.831306,599.372212 121.298107,597.765666 L121.178414,597.710413 L19.8914704,576.299433 C8.41231329,573.872825 0.166257077,563.818706 0,552.118504 L0,55.456039 C0,44.2021706 7.49684546,34.3263946 18.3364254,31.3010214 L124.918709,1.55345142 C126.8371,1.01802042 128.753284,0.719919755 130.640166,0.638580981 L130.711885,0.636653388 L130.870418,0.607270356 C131.362185,0.519734582 131.845013,0.442737027 132.323976,0.375940701 L132.682552,0.327750923 C135.176854,0.00012040871 137.690306,-0.0545738685 140.584728,0.044478361 L140.584728,0.044478361 Z M424.400621,548.210883 L144.021505,558.244045 L144.021505,573.868393 L424.400621,559.403912 L424.400621,548.210883 Z M118.94332,130.269471 L26.0132514,147.48032 C25.6998963,147.53835 25.3876723,147.571989 25.0781843,147.582581 L25.0781843,551.763455 L118.94332,571.605712 L118.94332,130.269471 Z M144.021505,127.169178 L144.021505,545.697421 L430.59078,535.442629 L430.71807,535.439809 L430.71807,147.109083 C429.371823,147.089208 428.021831,146.637409 426.890506,145.729339 C426.762763,145.626805 426.651784,145.541924 426.560067,145.47543 L426.516295,145.444384 L426.421891,145.416438 C426.355047,145.397164 426.281642,145.376892 426.201884,145.355724 L426.119433,145.33404 L144.021505,127.169178 Z M312.547293,172.620202 L312.736907,172.622105 C312.800259,172.623387 312.863756,172.625316 312.927393,172.6279 C318.400199,172.852617 322.836785,177.69899 322.836785,183.450319 L322.836785,265.32357 C322.836785,271.074899 318.400199,276.210956 312.927393,276.793018 C312.67577,276.819665 312.426337,276.83594 312.179425,276.842167 L311.994719,276.845071 C306.959288,276.87003 303.018001,272.706078 303.018001,267.131553 L303.018001,182.936394 C303.018001,177.159502 307.250633,172.620202 312.547293,172.620202 L312.547293,172.620202 Z M118.94332,29.4519616 L25.0781843,55.6417555 L25.0781843,134.900788 L118.94332,117.518459 L118.94332,29.4519616 Z M144.014065,25.4967823 C144.019406,25.6483061 144.0221,25.8006465 144.0221,25.9537662 L144.021505,114.604372 L427.475537,132.856496 C427.819453,132.878642 428.160957,132.929106 428.49658,133.007377 C429.343456,133.204877 430.071269,133.40311 430.718465,133.625457 L430.718465,55.3333689 C430.055085,53.7072388 429.051412,52.6061409 427.706795,52.0299752 C426.362178,51.4546027 422.847375,50.8602955 417.162386,50.2506951 L144.014065,25.4967823 Z" id="Shape"></path>
        </g>
    </g>
</svg>