<?xml version="1.0" encoding="UTF-8"?>
<svg width="600px" height="600px" viewBox="0 0 600 600" version="1.1" xmlns="http://www.w3.org/2000/svg" xmlns:xlink="http://www.w3.org/1999/xlink">
    <title>drivers/meter/assets/icon</title>
    <g id="/drivers/meter/assets/icon" stroke="none" stroke-width="1" fill="none" fill-rule="evenodd">
        <g id="icon" transform="translate(17, 0)" fill="#000000" fill-rule="nonzero">
            <path d="M154.503505,0.165167209 L459.687168,35.177564 C465.490567,35.8433628 470.885794,38.49351 474.960011,42.6796175 L495.77976,64.0711424 C500.384813,68.802665 502.961533,75.1445597 502.961533,81.747123 L502.961393,136.713209 L537.810807,140.312181 C546.131705,141.171516 553.485117,146.080081 557.473343,153.417445 L557.62702,153.704542 L563.583483,165.005617 C565.503549,168.648519 566.507,172.704431 566.507,176.822366 L566.507,434.579487 C566.507,439.546152 565.047631,444.403345 562.310223,448.547541 L556.35376,457.565106 C551.845139,464.390766 544.319097,468.620455 536.144393,468.922912 L502.961393,470.150371 L502.961533,534.953933 C502.961533,541.426778 500.485042,547.649581 496.047952,552.35011 L495.803987,552.604985 L474.984238,574.055297 C470.576438,578.596595 464.629019,581.324394 458.311636,581.702227 L153.127973,599.954792 C149.607699,600.165335 146.08223,599.638862 142.77705,598.409048 L23.1256522,553.888331 C19.5291926,552.550137 16.2835773,550.412706 13.6336273,547.637271 L7.01326661,540.703411 C2.51174988,535.988731 0,529.720813 0,523.202233 L0,393.689354 C0,384.476886 4.94027276,376.320924 12.4244043,371.881801 L12.5055924,371.834006 L12.5055924,254.732636 L12.1893453,254.551427 C5.31701073,250.491548 0.264653195,243.232619 0.0100761951,233.60411 L0,232.839057 L0,84.3156317 C0,74.4737844 5.69795948,65.5219038 14.6143808,61.3554494 L125.869239,9.36845507 L140.925847,2.36450649 C145.162447,0.393748456 149.861411,-0.367400121 154.503505,0.165167209 L154.503505,0.165167209 Z M471.129091,541.639058 L176.032583,557.147704 C173.195276,557.296813 170.350196,557.127365 167.550646,556.642534 L162.874919,555.83251 L148.722019,573.580979 L151.614941,574.65681 L456.798604,556.404244 L471.129091,541.639058 Z M138.792824,31.3073216 L136.558333,32.3471497 L99.5038402,49.662046 C99.9593871,50.5345833 100.217728,51.5265326 100.219622,52.5788654 L101.109177,547.307676 L104.212425,557.019205 L136.83854,569.159203 L136.868396,569.034436 C137.081847,568.180895 137.47744,567.358358 138.061793,566.625543 L153.923811,546.732598 L153.924291,431.047001 C153.924291,427.067873 157.549265,424.073679 161.45677,424.825243 L204.639846,433.130929 L201.568887,154.599152 L163.925983,162.59092 C159.985091,163.427576 156.274417,160.42198 156.274417,156.393254 L156.27433,51.3765344 L139.828932,32.8961998 C139.394806,32.4083642 139.049824,31.8720877 138.792824,31.3073216 Z M87.5530854,55.24625 L25.3431805,84.3156317 L25.3431805,232.839057 L37.8486259,212.13344 L37.8486259,392.380445 L25.3431805,393.689354 L25.3431805,523.202233 L31.9635411,530.136092 L89.1148589,551.401254 L88.7406137,550.230923 C88.5425396,549.61109 88.4411333,548.964443 88.4399624,548.313732 L87.5530854,55.24625 Z M166.599202,455.607996 L166.595297,541.184147 L166.595297,543.61646 L169.712946,544.156792 C171.579313,544.480013 173.476033,544.592978 175.367571,544.493572 L477.285847,528.626866 C477.397268,528.621011 477.508169,528.618071 477.618474,528.61798 L477.618474,457.886789 L226.606737,464.920348 C225.79079,465.303136 224.879863,465.517041 223.918977,465.517041 L220.016212,465.517041 C219.624364,465.517041 219.233361,465.48069 218.848229,465.408453 L166.599202,455.607996 Z M224.218536,138.214357 L214.204571,151.166058 L217.407331,441.705113 L224.218536,452.310337 L535.207357,443.597053 L541.16382,434.579487 L541.16382,176.822366 L535.207357,165.521291 L477.618353,159.573831 L224.218536,138.214357 Z M166.595297,438.71775 L166.595297,442.71509 L207.981345,450.477708 L206.74532,448.552794 C206.269735,447.812295 205.87482,447.027806 205.564605,446.212784 L166.595297,438.71775 Z M234.23585,145.300977 L476.918806,165.756467 C476.997991,165.763142 477.077112,165.77056 477.156157,165.778723 L523.574728,170.572292 C530.034734,171.239406 534.944667,176.682493 534.944667,183.176855 L534.944667,425.061117 C534.944667,431.921236 529.485383,437.535617 522.627956,437.727741 L289.588112,444.257481 C288.704483,444.742032 287.692164,445.022268 286.614066,445.033924 C285.61383,445.044527 284.665252,444.822785 283.819661,444.418933 L236.559504,445.742482 C229.479749,445.940835 223.611874,440.29764 223.533805,433.215534 L220.499163,158.067472 C220.418347,150.594152 226.788486,144.673246 234.23585,145.300977 L234.23585,145.300977 Z M233.171549,157.927796 L236.204626,433.075858 L280.136548,431.844763 L277.24299,161.642024 L233.171549,157.927796 Z M289.927252,162.711506 L292.80497,431.489958 L522.273077,425.061117 L522.273077,183.176855 L475.854505,178.383286 L289.927252,162.711506 Z M359.353742,349.116217 C367.19502,352.460874 370.756856,361.479833 367.250272,369.204706 L352.735924,401.491254 C349.315607,409.173069 340.349495,412.888139 332.571094,409.747446 C324.647842,406.529618 321.083307,397.428928 324.556219,389.569078 L324.565309,389.548604 L339.098233,356.970043 C342.559699,349.284754 351.612391,345.795935 359.353742,349.116217 L359.353742,349.116217 Z M399.88299,348.779176 C407.755546,352.055078 411.372885,360.993861 407.807557,368.660579 L393.293775,400.182335 C389.855257,407.72414 380.93352,411.340608 373.204885,408.300604 C365.250525,405.153092 361.630826,396.132426 365.159838,388.331265 L365.169479,388.310056 L379.702973,356.494788 C383.183696,348.949854 392.190034,345.559875 399.88299,348.779176 Z M440.411661,348.442438 C448.315431,351.648906 451.991269,360.507955 448.36338,368.118345 L433.850207,398.875273 C430.393309,406.275535 421.517544,409.793567 413.839242,406.853433 C405.853946,403.776951 402.176152,394.835912 405.764839,387.091623 L405.775077,387.069641 L420.309185,356.017632 C423.80935,348.614688 432.767652,345.323333 440.411661,348.442438 L440.411661,348.442438 Z M474.050463,352.239547 C476.644479,353.265102 478.696819,355.242742 479.759932,357.752744 C480.864426,360.35917 480.80367,363.312509 479.55137,365.889901 L465.037688,396.04405 C463.864746,398.503802 461.781366,400.363904 459.282391,401.330269 C456.823335,402.282287 454.070575,402.32749 451.55595,401.38018 C448.912045,400.382733 446.822405,398.388873 445.748144,395.839796 C444.65395,393.242156 444.713599,390.300206 445.957914,387.680982 L460.491596,357.369756 C461.690336,354.892973 463.820576,353.048678 466.365748,352.12922 C468.832537,351.23917 471.570917,351.2579 474.050463,352.239547 L474.050463,352.239547 Z M504.096793,351.912645 C506.688456,352.917234 508.751813,354.867166 509.828366,357.360197 C510.95743,359.973529 510.895145,362.943478 509.616624,365.524969 L495.103408,395.112103 C493.9182,397.551354 491.828258,399.383385 489.333907,400.331335 C486.896961,401.258549 484.174302,401.304144 481.682105,400.38455 C479.040575,399.408421 476.939251,397.442442 475.851207,394.909879 C474.732951,392.305703 474.794064,389.348158 476.06423,386.724063 L490.598385,356.97871 C491.809964,354.522654 493.946823,352.70732 496.486875,351.806643 C498.930966,350.941074 501.639271,350.958718 504.096793,351.912645 L504.096793,351.912645 Z M350.661302,362.153107 L336.137687,394.710898 L336.093072,394.819832 C335.573248,396.158085 336.137613,397.51916 337.327242,398.002311 C338.719293,398.564379 340.496005,397.828206 341.169202,396.316349 L355.702308,363.988077 C356.265902,362.746484 355.70967,361.338044 354.370523,360.766824 C352.950093,360.157601 351.268178,360.805795 350.661302,362.153107 L350.661302,362.153107 Z M391.219043,361.781449 L376.70507,393.553986 C376.15185,394.776924 376.658535,396.039636 377.855235,396.51318 C379.297,397.080285 381.118187,396.342058 381.773828,394.904126 L396.307518,363.339136 C396.811752,362.254838 396.311127,361.017745 395.003056,360.473421 C393.534181,359.858738 391.806012,360.50922 391.219043,361.781449 L391.219043,361.781449 Z M431.775358,361.411656 L417.26198,392.419377 C416.768404,393.484502 417.217095,394.575311 418.382661,395.02438 C419.874699,395.595701 421.741961,394.855586 422.379917,393.490011 L436.914237,362.688268 C437.355248,361.763125 436.913227,360.697822 435.636167,360.17972 C434.118284,359.560357 432.342186,360.21291 431.775358,361.411656 Z M341.298198,184.0959 L470.737454,192.34794 C479.441871,192.902866 486.465549,200.164178 486.465549,208.797715 L486.465549,288.210084 C486.465549,297.070978 479.092421,304.022262 470.161481,303.778494 L340.722226,300.245477 C331.850021,300.003312 324.763897,292.556288 324.763897,283.61775 L324.763897,199.821307 C324.763897,190.658447 332.204674,183.516167 341.298198,184.0959 Z M337.435487,199.821307 L337.435487,283.61775 C337.435487,285.754648 339.120466,287.525444 341.067965,287.5786 L470.507221,291.111617 C472.395984,291.163171 473.793959,289.845179 473.793959,288.210084 L473.793959,208.797715 C473.793959,206.935262 472.046534,205.128716 469.931249,204.993862 L340.491993,196.741821 C338.765814,196.631774 337.435487,197.908732 337.435487,199.821307 L337.435487,199.821307 Z M207.930702,136.164705 L168.945877,144.480884 L168.945877,148.57083 L206.225462,140.656679 L206.328336,140.635688 L209.666666,136.317843 L207.930702,136.164705 Z M168.945877,53.6977811 L168.945877,131.523734 L206.219486,123.57338 C206.74825,123.460589 207.28891,123.416021 207.828278,123.440483 L208.097792,123.45847 L224.336421,124.890467 C225.300156,124.975454 226.194392,125.272001 226.977388,125.730297 L477.618574,146.856808 L477.618574,88.083477 C477.386508,88.0831995 477.152108,88.0702016 476.916123,88.043884 L168.945877,53.6977811 Z M151.614941,25.3432011 L150.522019,25.8513193 L164.043265,41.043909 C164.944048,40.7234817 165.910061,40.6095748 166.868953,40.7165128 L470.657708,74.5951409 L456.798604,60.3555979 L151.614941,25.3432011 Z" id="Shape"></path>
        </g>
    </g>
</svg>