<?xml version="1.0" encoding="UTF-8"?>
<svg width="600px" height="600px" viewBox="0 0 600 600" version="1.1" xmlns="http://www.w3.org/2000/svg" xmlns:xlink="http://www.w3.org/1999/xlink">
    <title>drivers/inverter/assets/icon</title>
    <g id="/drivers/inverter/assets/icon" stroke="none" stroke-width="1" fill="none" fill-rule="evenodd">
        <g id="icon" transform="translate(0, 33)" fill="#000000" fill-rule="nonzero">
            <path d="M55.0079077,7.73100559 C63.4694686,2.27410817 73.4247474,-0.442959742 83.7119224,0.058915701 L84.2099436,0.0857141452 L84.7675122,0.122006173 L550.489569,34.5639996 C577.450123,36.5578816 599.109743,58.9651324 599.973315,85.8254317 L599.993103,86.6407273 L600,87.48208 L600,436.397808 C600,464.030211 577.946711,486.554097 550.42431,487.597854 L549.588641,487.622891 L548.957317,487.632551 L527.737179,487.761217 L527.573866,487.960958 C525.495635,490.477145 523.333679,492.755399 521.067267,494.796395 L520.542385,495.263182 L520.131544,495.620417 C512.280576,502.379434 503.114013,506.373437 493.019386,506.489446 L492.046338,506.493718 L486.959055,506.541893 L475.726085,506.675894 L440.093963,507.1355 L373.616667,508.022747 L373.655417,509.128986 C373.875344,515.426854 369.005385,520.721838 362.73844,521.053793 L362.526671,521.063098 L338.830519,521.890585 C332.532647,522.110511 327.23766,517.240556 326.905704,510.973615 L326.8964,510.761846 L326.822436,508.647747 L296.187821,509.056721 L296.51553,527.791696 C296.55788,530.217897 294.666528,532.227907 292.26154,532.351208 L292.107346,532.356501 L277.07461,532.618899 C274.648408,532.661248 272.638397,530.769898 272.515096,528.364911 L272.509803,528.210717 L272.180769,509.377234 L234.936538,509.874669 L235.28321,529.714772 C235.32556,532.140973 233.434208,534.150983 231.02922,534.274283 L230.875026,534.279577 L215.84229,534.543347 C213.416088,534.584324 211.406077,532.692974 211.282776,530.287987 L211.277482,530.133793 L210.928846,510.195182 L175.642308,510.666335 L175.752103,513.800526 C175.972029,520.098393 171.102071,525.393378 164.835126,525.725333 L164.623356,525.734637 L138.801794,526.636345 C132.503922,526.856272 127.208935,521.986316 126.876979,515.719376 L126.867675,515.507606 L126.720513,511.299027 L121.926238,511.360684 L110.039124,511.498473 L106.237653,511.53813 L105.111311,511.53813 C96.8036872,511.53813 87.9859705,510.794792 80.7076301,509.282362 C75.4386397,508.187471 70.7984891,506.699174 66.5259795,504.391432 C62.9799109,502.476067 59.7713218,500.047072 56.9848654,496.734676 C53.4768846,492.564567 51.1117731,487.457314 50.4178515,481.798563 L50.3721566,481.402876 L50.3410256,481.095837 L28.3631718,471.215287 C11.6451329,463.699197 0.690152436,447.351857 0.0314442308,429.107824 L0.0146396795,428.554401 L0,427.994253 L0,73.4063814 C0,58.8572857 6.58767718,45.1025645 17.8954807,35.9835153 L18.2395843,35.7086033 L18.6499858,35.3877978 L52.1386556,9.6762467 C52.6710753,9.26748555 53.2145032,8.88281991 53.7676193,8.52208815 L54.1842519,8.25602442 L54.5211538,8.04870846 L55.0079077,7.73100559 Z M510.489753,468.088108 L78.8829949,470.661998 C77.8585038,470.668013 76.845609,470.623955 75.8462577,470.532019 L75.8462577,478.317962 C75.8462577,480.137104 77.7061763,481.580353 80.633484,482.697903 L81.0588538,482.855342 C81.1309314,482.881215 81.2035936,482.906905 81.2768295,482.932411 L81.7230429,483.083265 C81.7985314,483.108044 81.8745712,483.132641 81.9511532,483.157058 L82.417059,483.301399 L82.8954526,483.441439 L83.3858218,483.577209 L83.8876545,483.708744 C83.9722199,483.730316 84.0572417,483.751712 84.1427096,483.772933 L84.6607769,483.898174 L85.1890276,484.019261 L85.72695,484.136225 L86.2740308,484.249099 L86.9837558,484.387082 L87.3435538,484.453623 L88.0723596,484.581846 L88.8125603,484.703646 L89.5630955,484.819092 L89.9419071,484.874453 L90.7059571,484.980492 L91.0909295,485.031187 L91.8661077,485.127971 L92.2560481,485.174077 L93.0399692,485.261758 L93.8283936,485.343454 L94.2239628,485.382079 L95.0171545,485.454924 L95.8121987,485.521953 L96.6080359,485.583232 L97.4036045,485.63883 L98.1978455,485.688813 L98.9896981,485.733249 L99.9745404,485.781096 L100.951923,485.820512 L101.727067,485.846063 L102.495052,485.866369 L103.631286,485.887144 L104.376733,485.897116 L105.580551,485.897116 L107.135421,485.883764 L110.945301,485.844798 L116.426825,485.781853 L128.967491,485.6281 L169.182256,485.108666 L433.210224,481.583485 L469.005541,481.120053 L481.451891,480.966299 L489.559553,480.874612 L491.469433,480.857011 L492.787987,480.849095 C498.457458,480.749559 504.123481,476.823606 509.786054,469.071234 L510.032251,468.731763 L510.489753,468.088108 Z M78.3014827,25.8338661 C74.5473269,26.3217094 71.0799782,27.7181431 68.0897654,29.8298347 L67.7821429,30.0508288 L67.7532468,30.014541 L62.1863365,34.2875132 C60.1772577,37.5268412 59.0057423,41.5192483 59.0057423,45.9548512 L59.0057423,435.968434 C59.0057423,448.22978 67.9854103,457.905031 78.806941,457.842105 L553.168583,455.012346 C564.166157,454.946783 573.045836,446.175114 573.045836,435.492489 L573.045836,82.0272296 C573.045836,80.7749657 572.924137,79.5388075 572.691647,78.3304577 C569.434604,69.6211024 561.733043,62.7453864 552.400976,60.6916371 L78.3014827,25.8338661 Z M46.1846154,46.5736879 L34.414156,55.6103744 L34.1525106,55.8143351 C28.8677203,59.9970414 25.7428983,66.3356405 25.6434724,73.0746399 L25.6410256,73.4063814 L25.6410256,427.660122 C25.7552195,436.277178 30.7964683,444.070877 38.6097402,447.706692 L38.8771724,447.829024 L50.3491344,452.987143 C47.6946483,447.951792 46.1852294,442.142034 46.1852294,435.968434 L46.1846154,46.5736879 Z M547.702474,428.231723 C549.115654,423.043611 554.159871,419.727556 558.969046,420.825106 C563.778221,421.922656 566.531219,427.018193 565.118038,432.206305 C563.704858,437.394417 558.660642,440.710472 553.851467,439.612922 C549.042292,438.515371 546.289294,433.419835 547.702474,428.231723 L547.702474,428.231723 Z M75.2665769,426.995291 C76.6797571,421.327338 81.7239731,417.704586 86.5331481,418.903647 C91.3423237,420.102708 94.0953212,425.669523 92.682141,431.337477 C91.2689609,437.005429 86.2247449,440.628181 81.4155699,439.42912 C76.6063942,438.230059 73.8533968,432.663244 75.2665769,426.995291 Z M547.702474,259.83248 C549.115654,254.644368 554.159871,251.328313 558.969046,252.425863 C563.778221,253.523414 566.531219,258.61895 565.118038,263.807062 C563.704858,268.995174 558.660642,272.31123 553.851467,271.213679 C549.042292,270.116129 546.289294,265.020593 547.702474,259.83248 L547.702474,259.83248 Z M75.2665769,243.021051 C76.6797571,237.353099 81.7239731,233.730347 86.5331481,234.929408 C91.3423237,236.128469 94.0953212,241.695284 92.682141,247.363237 C91.2689609,253.03119 86.2247449,256.653942 81.4155699,255.45488 C76.6063942,254.25582 73.8533968,248.689005 75.2665769,243.021051 Z M547.702474,92.019995 C549.115654,86.8318829 554.159871,83.5158274 558.969046,84.613378 C563.778221,85.7109285 566.531219,90.806465 565.118038,95.994577 C563.704858,101.182689 558.660642,104.498745 553.851467,103.401194 C549.042292,102.303643 546.289294,97.208107 547.702474,92.019995 L547.702474,92.019995 Z M75.2665769,59.6878371 C76.6797571,54.0198844 81.7239731,50.3971322 86.5331481,51.5961936 C91.3423237,52.7952544 94.0953212,58.3620694 92.682141,64.0300227 C91.2689609,69.6979755 86.2247449,73.3207276 81.4155699,72.1216662 C76.6063942,70.9226054 73.8533968,65.3557905 75.2665769,59.6878371 Z" id="Shape"></path>
        </g>
    </g>
</svg>