<?xml version="1.0" encoding="UTF-8"?>
<svg width="600px" height="600px" viewBox="0 0 600 600" version="1.1" xmlns="http://www.w3.org/2000/svg" xmlns:xlink="http://www.w3.org/1999/xlink">
    <title>drivers/evcharger/assets/icon</title>
    <g id="/drivers/evcharger/assets/icon" stroke="none" stroke-width="1" fill="none" fill-rule="evenodd">
        <g id="icon" transform="translate(163, 0)" fill="#000000" fill-rule="nonzero">
            <path d="M214.998418,582.570108 L215.01102,582.589241 L215.028792,582.615923 L204.991795,584.888876 C202.827358,585.379069 200.672122,584.502349 199.429034,582.828189 L191.565416,584.608496 L190.328391,584.888876 C189.981321,584.967478 189.634487,585.010936 189.291613,585.021591 L189.144919,585.02416 C186.65563,585.033881 184.404744,583.320386 183.832055,580.791729 L156.832701,461.579213 L161.784587,483.445075 L130.09746,500.057871 C126.985572,501.689307 123.524398,502.541574 120.010791,502.541574 L104.2272,502.541574 C101.442017,502.541574 98.8834658,502.080983 96.5758523,501.253375 L85.4277573,572.281047 C84.9626911,575.244175 82.1835944,577.269252 79.2204709,576.804183 L63.6613634,574.36216 L68.3293531,575.095439 C67.1413448,576.397963 65.3428403,577.097989 63.4708896,576.804183 L53.5260169,575.243214 C53.4926669,575.277141 53.4588863,575.310611 53.4246858,575.343631 L53.5260169,575.243214 C53.4788263,575.291217 53.4307738,575.33832 53.3818887,575.384498 C53.3548239,575.410062 53.3275049,575.435348 53.2999361,575.460341 C53.2869171,575.472142 53.2740714,575.483677 53.2611725,575.495147 C53.2405846,575.51346 53.2196197,575.531822 53.1985174,575.550021 C53.1410755,575.599556 53.0827151,575.647804 53.023387,575.694814 L53.016795,575.700028 C52.9775275,575.731044 52.937838,575.761516 52.897739,575.791441 C52.8867425,575.799641 52.8757596,575.807777 52.8647463,575.815863 C52.7919013,575.869374 52.7177354,575.921071 52.6423172,575.970905 C52.6211014,575.984922 52.6001061,575.998586 52.5790158,576.012103 C52.5554642,576.027207 52.5315401,576.042283 52.5074975,576.05718 C52.4925473,576.066439 52.4774859,576.075672 52.4623793,576.084828 C52.3261612,576.167389 52.1864157,576.243954 52.0433709,576.314343 C52.0225304,576.324597 52.00159,576.334736 51.9805801,576.344745 C51.954344,576.357237 51.9279292,576.369559 51.9014085,576.381676 C51.8831276,576.390023 51.8648494,576.398245 51.8465218,576.406375 C51.7020427,576.470433 51.5545441,576.528299 51.4043773,576.579702 C51.3928051,576.583667 51.3812563,576.587572 51.3696918,576.591444 C51.3372379,576.602311 51.3046993,576.612863 51.2720428,576.623106 L51.2344203,576.634766 C51.2255913,576.637465 51.2167531,576.640143 51.2079072,576.642798 C51.1775067,576.651922 51.1471252,576.660758 51.1166476,576.669323 C51.0861152,576.677909 51.0555116,576.686224 51.0248156,576.694272 C50.9399096,576.716539 50.8544367,576.736742 50.7683196,576.754887 C50.7533596,576.758036 50.73812,576.761181 50.7228609,576.764255 C50.6182424,576.785348 50.5129885,576.803357 50.4069232,576.818249 C50.3851887,576.821301 50.3633071,576.824239 50.3413924,576.827041 C50.3184686,576.829974 50.2956431,576.832744 50.2727818,576.835372 C50.2396615,576.839179 50.2063528,576.842693 50.172974,576.845903 C50.1440806,576.848678 50.1151128,576.851225 50.0860944,576.853539 C50.0693206,576.85488 50.0524805,576.856146 50.0356241,576.857329 C49.9860515,576.860816 49.9364522,576.863618 49.8867205,576.865742 C49.881799,576.865948 49.8767249,576.86616 49.8716487,576.866361 C49.7624481,576.870711 49.6527664,576.87177 49.5425693,576.869457 C49.5179413,576.868941 49.4935414,576.868262 49.4691171,576.86742 C49.4355797,576.866263 49.4017154,576.864786 49.3678076,576.862983 C49.3521753,576.862152 49.336605,576.861256 49.3210259,576.860295 C49.2775962,576.857606 49.2341246,576.854402 49.1905933,576.850666 C49.1766283,576.849466 49.1628491,576.848227 49.1490644,576.84694 C49.1090257,576.843198 49.0686351,576.838973 49.0281999,576.834286 C49.0093607,576.832103 48.9907072,576.829844 48.972044,576.827487 C48.9173305,576.820579 48.8624399,576.812807 48.8074864,576.804183 L33.2483789,574.36216 C30.2852554,573.897096 28.2601797,571.117994 28.7252458,568.154872 L46.8158226,452.892474 L40.9358446,490.352842 C39.3915503,487.198363 38.5911045,483.620077 38.7587387,479.852413 L42.5157231,395.400022 L42.4338866,395.373709 C41.5306775,395.073115 40.6472259,394.713154 39.7894016,394.295779 L39.4233488,394.113395 C30.7284617,389.678559 24.1343955,385.570246 19.3041499,381.333312 C14.539825,377.154202 9.58628297,371.205257 3.9570546,363.204683 C1.38198611,359.544851 -2.84217094e-14,355.17907 -2.84217094e-14,350.704101 L-2.84217094e-14,30.4151853 C-2.84217094e-14,22.4790502 4.32767863,15.1744897 11.2881822,11.362197 C18.8315202,7.23068381 24.8436567,4.45115443 29.9455972,2.92081188 C35.3891554,1.28800011 41.703912,0.489232276 49.1734252,0.299435377 C50.5073159,0.265541825 51.8414922,0.354616728 53.1590387,0.565530677 L79.0634411,4.71242976 L121.852881,4.71242976 L123.689838,3.51672581 C127.979724,0.724638251 133.117734,-0.462999024 138.197761,0.163257849 C154.566888,2.18121504 168.979999,4.42318984 181.46456,6.90150521 C196.339531,9.85434184 208.50578,18.2410019 216.435151,31.1236402 C223.583447,42.7372864 226.944467,57.3450618 226.944467,74.4723463 L226.944949,223.182055 L227.294316,223.685512 C229.183887,226.419704 231.02083,229.178874 232.689833,231.787029 L233.18538,232.564769 C237.74905,239.758779 239.635681,243.098993 240.689356,247.62053 L240.75264,247.895055 C241.070828,249.286886 241.532974,251.456524 241.981143,253.665573 L242.102905,254.268463 C242.183692,254.670302 242.26354,255.071224 242.341503,255.466792 L242.455929,256.050628 C242.902283,258.340685 243.085311,259.283274 243.220862,260.034591 L243.245774,260.173504 L243.281748,260.377173 C243.325055,260.624595 243.366738,260.870762 243.415564,261.162639 C244.271184,266.277485 243.259089,271.417839 240.731516,275.731807 C251.301543,293.815272 259.786155,324.102467 266.514806,366.962962 C274.182418,415.804492 276.556341,491.666435 273.66967,594.717435 C273.585753,597.713165 271.09105,600.074691 268.095225,599.998193 L254.560078,599.63109 C251.559265,599.550566 249.192945,597.050802 249.277,594.050082 C252.122735,492.459719 249.821758,417.965469 242.407474,370.737594 C237.886133,341.93734 232.681774,319.588475 226.944638,303.862415 L226.944467,306.342808 C226.944467,324.458458 220.376506,340.883903 209.39747,354.762991 L209.063424,355.18279 C200.766411,365.548545 190.075601,374.126841 181.136767,378.214637 C177.254655,379.989957 171.07051,382.891411 162.610652,386.907013 L162.446612,386.984853 L162.64219,387.043066 C174.470772,390.65891 183.69671,400.325613 186.63044,412.511455 C186.43634,412.379981 186.241532,412.24967 186.046027,412.120525 C187.772153,413.260665 189.443472,414.491443 191.052885,415.809338 C201.429301,424.306244 208.74269,436.018999 211.747069,449.28473 L240.199106,574.913716 C240.861621,577.839034 239.027261,580.747543 236.101947,581.410058 L220.741376,584.888876 C218.411041,585.41664 216.09137,584.359924 214.90926,582.429431 L214.998418,582.570108 Z M232.762645,283.696762 L232.662868,283.763344 C231.99283,284.203577 231.281723,284.653053 230.525972,285.114682 C239.432324,301.623939 246.773859,329.015292 252.899725,367.545893 L253.137829,369.053038 C260.528037,416.127542 262.902578,489.159785 260.300077,588.254624 L260.282105,588.918653 L262.959533,588.990341 L262.97805,588.299515 C265.558763,489.986871 263.2235,417.220723 256.009131,370.096783 L255.78445,368.647518 C249.534683,328.837449 241.763098,300.473321 232.762645,283.696762 Z M178.828373,441.003783 L178.981142,441.40803 C179.9374,443.96335 180.724601,446.593577 181.334085,449.28473 L209.301616,572.775123 L212.276631,572.10117 L213.181418,576.096679 L214.030835,579.847232 L185.793,455.162728 C184.599673,449.893639 182.19655,445.065418 178.828373,441.003783 L178.828373,441.003783 Z M171.10421,416.500607 L171.105299,416.508608 L171.113537,416.55942 C171.151204,416.794752 171.184115,417.031357 171.212203,417.269115 C171.216415,417.304725 171.2205,417.340239 171.224478,417.375783 C171.251064,417.613408 171.272852,417.852318 171.289748,418.092241 C171.293251,418.141919 171.296566,418.192044 171.299667,418.242222 C171.306918,418.359605 171.312985,418.476834 171.317881,418.594282 L171.457002,421.94021 L171.458304,421.973861 L171.753308,422.110878 C174.936496,423.608782 177.934302,425.477825 180.683598,427.678173 L181.074656,427.994757 C188.751853,434.281362 194.163644,442.948611 196.386497,452.763545 L223.638839,573.095524 L228.405531,572.015862 L201.153571,451.683913 C198.718495,440.931917 192.840744,431.431673 184.493607,424.479219 L184.171348,424.213075 C180.279464,421.02614 175.948559,418.460594 171.325033,416.589257 L171.10421,416.500607 Z M168.343575,461.308917 L168.325283,461.311947 C168.292088,461.317386 168.258788,461.322526 168.225387,461.327364 C168.214383,461.328958 168.203094,461.330557 168.191794,461.332122 L168.156918,461.336835 C168.07858,461.347166 167.999697,461.355834 167.920304,461.362801 L193.225854,573.095524 L196.580299,572.335242 L196.580299,572.33522 L171.125919,459.941329 L171.101901,459.963414 C171.071659,459.991059 171.041099,460.018367 171.010231,460.045333 L170.986246,460.066163 C170.979269,460.072187 170.972276,460.078193 170.965267,460.084182 C170.960803,460.087998 170.956217,460.091904 170.951624,460.095803 L170.932811,460.111701 C170.861925,460.171328 170.789481,460.229183 170.715547,460.285196 C170.70069,460.296452 170.685792,460.307619 170.670834,460.318711 C170.589972,460.378681 170.507243,460.436548 170.422856,460.492133 L170.411342,460.499696 C170.402555,460.505452 170.39375,460.511183 170.384928,460.51689 C170.380579,460.519702 170.376183,460.522537 170.371782,460.525365 L170.356359,460.535241 C170.328784,460.552833 170.301039,460.570183 170.273124,460.587288 C170.263916,460.59293 170.255096,460.598299 170.24626,460.603644 C170.233921,460.611108 170.2213,460.618673 170.208646,460.626188 L170.200031,460.631293 C170.178627,460.64395 170.157127,460.656465 170.135533,460.668837 C170.131074,460.671392 170.126692,460.673894 170.122306,460.676391 L170.076875,460.701961 C170.068184,460.706797 170.059478,460.711611 170.050758,460.716401 C170.047917,460.717962 170.044814,460.719663 170.041708,460.721361 L170.032917,460.726157 C170.02534,460.730283 170.017751,460.734391 170.010152,460.738481 C169.997858,460.745098 169.985631,460.751618 169.973376,460.758094 L169.94967,460.770544 C169.93219,460.779669 169.914654,460.788702 169.897062,460.797642 C169.881495,460.805554 169.865531,460.813569 169.849522,460.821506 C169.812973,460.839629 169.77624,460.857329 169.739276,460.874626 C169.720848,460.883248 169.702468,460.891723 169.684032,460.900097 C169.678472,460.902623 169.672808,460.905185 169.667139,460.907737 L169.644179,460.918007 C169.605377,460.935256 169.566332,460.952064 169.52705,460.968425 C169.524503,460.969486 169.521946,460.970548 169.519388,460.971609 L169.51001,460.975488 C169.504442,460.977785 169.498869,460.980072 169.493291,460.982351 C169.454953,460.998013 169.416627,461.01316 169.378088,461.027882 C169.367668,461.031862 169.357115,461.035856 169.346545,461.039818 C169.343656,461.0409 169.3411,461.041856 169.338544,461.042809 L169.309542,461.053533 C169.279825,461.064424 169.249983,461.075063 169.22002,461.085449 C169.204341,461.090883 169.188723,461.096216 169.173072,461.10148 C169.166946,461.10354 169.160748,461.105612 169.154546,461.107673 L169.145036,461.110823 C169.11942,461.119282 169.093717,461.127556 169.067931,461.135643 C169.053153,461.140278 169.038416,461.14483 169.023652,461.149321 L169.006792,461.15442 C169.001555,461.155994 168.996316,461.15756 168.991072,461.15912 C168.983224,461.161453 168.975378,461.163766 168.967524,461.166062 L168.932668,461.176125 C168.907384,461.183333 168.882024,461.190362 168.856587,461.197211 C168.842256,461.201069 168.828196,461.204794 168.814114,461.208464 C168.802008,461.211618 168.789817,461.214749 168.777609,461.217839 L168.752271,461.224187 C168.735432,461.228362 168.718562,461.232459 168.701659,461.236478 C168.696943,461.237599 168.692388,461.238676 168.687831,461.239746 L168.661004,461.245977 C168.641099,461.250547 168.621151,461.255008 168.601161,461.259359 C168.595856,461.260514 168.590395,461.261694 168.584929,461.262866 C168.565675,461.266985 168.549256,461.270417 168.532808,461.273775 C168.527604,461.274838 168.52216,461.275941 168.516713,461.277036 L168.491588,461.282024 C168.459637,461.288289 168.427582,461.294274 168.395426,461.299978 C168.389659,461.301002 168.383695,461.30205 168.377728,461.303088 C168.366194,461.305094 168.35489,461.307023 168.343575,461.308917 L168.343575,461.308917 Z M91.63803,422.219634 L91.6471257,422.209338 C91.6005183,422.262081 91.5538138,422.315122 91.5072053,422.36824 C91.4090186,422.480141 91.3113338,422.592301 91.2140758,422.704805 L91.1451241,422.784705 C90.5752825,423.220124 90.0139343,423.668447 89.4614553,424.129518 C84.1209911,428.586409 79.8042775,434.071846 76.752681,440.244404 C74.9412239,446.409306 73.7473643,452.928113 73.1053495,457.018653 L56.2091694,564.668971 L59.6012767,565.201764 L59.1382303,568.154872 L77.2288071,452.892474 C79.0423252,441.337815 84.0939203,430.76095 91.63803,422.219634 L91.63803,422.219634 Z M112.533689,419.054213 L112.478807,419.085413 C109.918104,420.544219 107.485283,422.231543 105.211037,424.129518 C96.0105771,431.807773 89.8485892,442.538731 87.959226,454.576629 L70.7104046,564.473438 L75.5395521,565.23159 L92.7879146,455.334499 C94.4702561,444.615619 99.9201233,435.032074 108.047887,428.130471 L108.342826,427.882186 C109.646266,426.794399 111.009917,425.781557 112.426823,424.848695 L112.533689,424.778917 L112.533689,419.054213 Z M73.1131461,425.600534 L73.066737,425.643075 C72.9587709,425.741925 72.8512729,425.841218 72.7442464,425.940949 C72.6980843,425.984065 72.6518941,426.02727 72.6057923,426.070556 L72.7442464,425.940949 C72.6557761,426.023389 72.5676273,426.106129 72.4798017,426.189167 L72.6057923,426.070556 C72.5009865,426.168961 72.3966368,426.267789 72.292745,426.367036 L72.4798017,426.189167 C72.3843521,426.279414 72.2892833,426.370013 72.1945985,426.460961 L72.292745,426.367036 C72.1887173,426.466413 72.0851497,426.566211 71.9820427,426.666427 L72.1945985,426.460961 C72.1122792,426.540032 72.0302494,426.619367 71.9485107,426.698965 L71.9820427,426.666427 C71.8937739,426.752221 71.8058429,426.838321 71.7182518,426.924726 C71.6752044,426.967111 71.632283,427.009606 71.5894431,427.052175 L71.7182518,426.924726 C71.6303268,427.01146 71.5427439,427.0985 71.4555043,427.185846 L71.5894431,427.052175 C71.498568,427.142474 71.4080617,427.233102 71.3179263,427.324058 L71.4555043,427.185846 C71.3711495,427.270303 71.2871157,427.355045 71.2034045,427.44007 L71.3179263,427.324058 C71.2161297,427.42678 71.1148055,427.52992 71.0139561,427.633473 L71.2034045,427.44007 C70.9878161,427.659042 70.7743664,427.879891 70.5630765,428.102588 C70.5373379,428.129658 70.5118154,428.156619 70.4863245,428.183608 L70.5630765,428.102588 C70.491455,428.178076 70.4200817,428.253776 70.3489577,428.329688 L70.4863245,428.183608 C70.38666,428.289127 70.2874789,428.395059 70.1887839,428.5014 L70.3489577,428.329688 C70.2499195,428.435392 70.151364,428.541505 70.0532935,428.648025 L70.1887839,428.5014 C70.1006943,428.596314 70.012992,428.691553 69.9256785,428.787116 L70.0532935,428.648025 C69.9628377,428.746275 69.8727941,428.84487 69.7831654,428.943808 L69.9256785,428.787116 C69.8524766,428.867234 69.7795479,428.947579 69.7068929,429.02815 L69.7831654,428.943808 C69.6916326,429.044847 69.6005327,429.146244 69.5098662,429.247996 C69.4526333,429.312186 69.3956437,429.37648 69.3388274,429.440913 L69.5098662,429.247996 C69.3140766,429.467725 69.1203117,429.68911 68.9285899,429.912124 C68.8994287,429.946012 68.8705157,429.979735 68.84165,430.013496 L68.9285899,429.912124 C68.4081689,430.517485 67.9028023,431.134853 67.4128665,431.763693 C67.3775157,431.809051 67.342342,431.85436 67.3072476,431.899728 L67.4128665,431.763693 C67.1021446,432.162509 66.7976297,432.565939 66.4994174,432.973848 C66.4105093,433.095452 66.3219657,433.217735 66.2339869,433.340414 C66.173394,433.424911 66.1130405,433.509631 66.0529558,433.594538 C65.9730044,433.707517 65.8935788,433.82076 65.814631,433.934331 C65.7569761,434.017274 65.6997079,434.100197 65.6426939,434.183294 L65.4283551,434.498281 C65.4167716,434.515446 65.4051989,434.532618 65.3936365,434.549797 C65.1013189,434.98413 64.8159218,435.423058 64.5375311,435.86646 C64.4365779,436.027257 64.3365404,436.188647 64.2374299,436.350618 C64.1267283,436.531525 64.0172394,436.713067 63.9089127,436.895324 C63.7572621,437.150482 63.6079501,437.406924 63.4609326,437.664737 C63.4095423,437.75485 63.3586125,437.844818 63.3079613,437.934952 L63.4609326,437.664737 C63.3996451,437.772213 63.3387566,437.879926 63.2782679,437.987876 L63.3079613,437.934952 C63.2432045,438.050187 63.1789038,438.165693 63.115061,438.281466 L63.2782679,437.987876 C63.1967589,438.13334 63.1159766,438.279233 63.0359242,438.42555 L63.115061,438.281466 C63.0525981,438.394738 62.9905736,438.508266 62.9289895,438.622048 L63.0359242,438.42555 C62.9573034,438.569251 62.879387,438.71336 62.8021776,438.857875 L62.9289895,438.622048 C62.866576,438.737361 62.804615,438.852935 62.7431075,438.968768 L62.8021776,438.857875 C62.752227,438.951369 62.7025724,439.045032 62.6532154,439.138864 L62.7431075,438.968768 C62.6721328,439.10243 62.6017626,439.236435 62.531999,439.370781 L62.6532154,439.138864 C62.5223217,439.387699 62.3935167,439.637717 62.2668173,439.888893 C62.233155,439.955618 62.1997094,440.022299 62.1664116,440.08906 L62.2668173,439.888893 C62.2128077,439.995965 62.1591809,440.103248 62.1059375,440.210739 L62.1664116,440.08906 C62.0472557,440.327967 61.9299995,440.567911 61.8146566,440.808873 C61.787821,440.864944 61.7610836,440.921072 61.7344505,440.977254 L61.8146566,440.808873 C61.7607751,440.921436 61.7073118,441.03422 61.6542672,441.147224 L61.7344505,440.977254 C61.688786,441.073583 61.6434266,441.170073 61.598373,441.266722 L61.6542672,441.147224 C61.5933886,441.276918 61.5330617,441.406902 61.4732888,441.537173 L61.598373,441.266722 C61.5373412,441.397649 61.476871,441.52887 61.4169645,441.660381 L61.4732888,441.537173 C61.4197538,441.653848 61.366663,441.770754 61.3140187,441.887887 L61.4169645,441.660381 C61.293529,441.931355 61.1724875,442.203561 61.0538584,442.476974 C61.0410176,442.506561 61.0281057,442.5364 61.0152225,442.566254 L61.0538584,442.476974 C61.0105069,442.57689 60.9674769,442.676967 60.9247705,442.777205 L61.0152225,442.566254 C60.7876291,443.093642 60.5690043,443.625497 60.3594865,444.161623 C60.3405034,444.210202 60.3214106,444.259286 60.3023943,444.308407 L60.3594865,444.161623 C60.3211385,444.259749 60.2830956,444.358019 60.2453586,444.45643 L60.3023943,444.308407 C60.2626559,444.411053 60.223251,444.513855 60.1841801,444.61681 L60.2453586,444.45643 C60.1950837,444.587538 60.1453525,444.718898 60.096166,444.850506 L60.1841801,444.61681 C59.9842104,445.143752 59.7929985,445.674729 59.6106743,446.209556 C59.4681243,446.627709 59.3310432,447.048105 59.1994544,447.470766 C59.1676772,447.572839 59.1362519,447.674935 59.1051475,447.777162 L59.1994544,447.470766 C59.1138532,447.745717 59.030576,448.021626 58.94964,448.298469 C58.8911629,448.498497 58.833962,448.698817 58.7779869,448.899615 C58.7152335,449.124739 58.6541887,449.349834 58.5946857,449.575512 C58.5825802,449.621425 58.5704704,449.667623 58.5584247,449.713845 L58.5946857,449.575512 C58.56594,449.684537 58.5375538,449.793699 58.5095288,449.902995 L58.5584247,449.713845 C58.4523133,450.121033 58.3512172,450.53011 58.2551893,450.941002 C58.2474672,450.974042 58.239764,451.007156 58.2320934,451.040282 L58.2551893,450.941002 C58.2070065,451.147171 58.1600988,451.353797 58.1144744,451.560871 C58.0354045,451.919745 57.9602127,452.279835 57.8889046,452.641218 C57.7623887,453.282397 57.6481054,453.927614 57.5462415,454.576629 L40.2974201,564.473438 L43.8777903,565.035014 L61.4792258,452.892474 C63.0603996,442.818175 67.103089,433.487173 73.1131461,425.600534 L73.1131461,425.600534 Z M103.518334,457.018653 L101.273044,471.325168 C105.350345,470.159648 108.993315,469.576888 112.201954,469.576888 C120.338122,469.576888 117.679871,473.323925 104.2272,480.818001 L120.010791,480.818001 L156.70236,461.581929 L118.064606,462.292702 C115.026652,462.348564 112.53387,459.901196 112.53387,456.862727 L112.533681,438.805071 C107.783198,443.759085 104.609062,450.069183 103.518334,457.018653 L103.518334,457.018653 Z M129.392982,412.70455 L129.200461,412.707342 C129.011588,412.712561 128.824414,412.726508 128.639377,412.748941 C128.633318,412.749536 128.62717,412.750289 128.621025,412.751051 L128.639377,412.748941 C128.517012,412.763775 128.395582,412.782319 128.275213,412.804504 C128.267503,412.805714 128.259929,412.807124 128.25236,412.80855 L128.275213,412.804504 C128.212822,412.816003 128.150714,412.828481 128.08891,412.841926 L128.25236,412.80855 C128.173668,412.823367 128.095533,412.839729 128.017986,412.857602 L128.08891,412.841926 C128.030534,412.854626 127.972429,412.868189 127.914608,412.882607 L128.017986,412.857602 C127.966501,412.869469 127.915276,412.882001 127.864319,412.89519 L127.914608,412.882607 C127.854498,412.897597 127.794696,412.913511 127.735219,412.930341 L127.864319,412.89519 C127.798602,412.912199 127.733332,412.930299 127.668529,412.94947 C127.642788,412.957246 127.617269,412.96498 127.591812,412.972885 L127.547838,412.986675 L127.512721,412.998052 C127.414761,413.029984 127.317765,413.064437 127.221812,413.10137 L127.200925,413.109335 L127.149556,413.129728 C127.109791,413.145637 127.070211,413.161975 127.030821,413.178738 L126.995798,413.193517 L126.861339,413.254029 C126.749179,413.305981 126.638673,413.361444 126.529955,413.420343 C126.515954,413.427556 126.502029,413.43516 126.488139,413.442819 L126.529955,413.420343 C126.479965,413.447426 126.430352,413.475236 126.381132,413.503764 L126.389192,413.499713 C126.293666,413.554911 126.19999,413.612507 126.108232,413.672408 C126.09755,413.678925 126.087064,413.685831 126.076598,413.692772 L126.108232,413.672408 C126.062777,413.702081 126.017793,413.73232 125.973287,413.763112 L126.076598,413.692772 C126.024401,413.727388 125.97271,413.762853 125.921543,413.799157 L125.973287,413.763112 C125.927993,413.794449 125.883196,413.82636 125.838901,413.858832 L125.921543,413.799157 C125.866811,413.83799 125.812678,413.877783 125.759166,413.918525 L125.838901,413.858832 C125.795222,413.890853 125.752033,413.92342 125.709341,413.956521 L125.759166,413.918525 C125.550194,414.077625 125.350678,414.251189 125.161895,414.438506 C124.901697,414.696683 124.66747,414.975448 124.461095,415.271212 C124.448052,415.289779 124.435005,415.308783 124.422068,415.327863 L124.461095,415.271212 C124.432945,415.311556 124.405313,415.352216 124.378204,415.393183 L124.422068,415.327863 C123.770297,416.289114 123.400445,417.439055 123.39565,418.655896 L123.39565,451.330692 L161.238782,450.634334 L161.781328,450.624016 L160.909127,429.687922 L160.860249,428.515936 L160.465527,419.046685 L160.461622,418.97983 L160.454807,418.856051 L160.450765,418.801396 C160.448905,418.777769 160.446919,418.754171 160.444808,418.730604 L160.431913,418.602674 C160.431614,418.599961 160.431315,418.597248 160.431013,418.594536 C160.428114,418.566591 160.424883,418.538962 160.421481,418.511378 L160.417296,418.476894 L160.403365,418.376085 C160.401111,418.36049 160.398803,418.344911 160.396439,418.329347 C160.390412,418.292848 160.384532,418.256483 160.378352,418.220215 C160.378122,418.213894 160.377074,418.207741 160.376017,418.20159 L160.378352,418.220215 C160.182386,417.07013 159.68478,416.017097 158.965604,415.151282 L158.871465,415.040583 C158.787692,414.94453 158.700929,414.850688 158.611247,414.759177 L158.474547,414.623674 C157.875221,414.046564 157.180286,413.593921 156.423367,413.28407 C156.418238,413.281476 156.412623,413.279188 156.407004,413.276907 L156.423367,413.28407 C156.246115,413.211511 156.065464,413.146782 155.881846,413.090119 C155.875797,413.087888 155.869666,413.086006 155.863531,413.084134 L155.881846,413.090119 C155.824499,413.072422 155.766863,413.055512 155.70895,413.039396 L155.863531,413.084134 C155.79957,413.064611 155.735169,413.046038 155.670345,413.028431 L155.70895,413.039396 C155.647391,413.022265 155.585518,413.00603 155.52335,412.990702 L155.670345,413.028431 C155.614392,413.013234 155.558123,412.998758 155.501548,412.985013 L155.52335,412.990702 C155.025055,412.867841 154.507719,412.803164 153.979478,412.801104 L136.715598,412.733217 L133.195851,412.71986 L133.179002,412.719097 L129.392982,412.70455 Z M114.34311,370.60909 C99.4884588,370.60909 83.2659638,374.17612 65.6741339,381.358948 C65.4106352,381.466535 65.143594,381.551921 64.875087,381.615976 L63.1606826,420.129268 L63.3531718,419.931843 L63.3595781,419.925303 C63.5225809,419.75893 63.686591,419.593443 63.8516026,419.428851 L63.3531718,419.931843 C63.5393683,419.741739 63.7268806,419.552791 63.9156985,419.365013 C64.074671,419.206918 64.2344983,419.049722 64.3952445,418.893362 C64.4216881,418.867641 64.4481153,418.841981 64.4745676,418.816344 C64.6295706,418.666119 64.7854132,418.516681 64.9421015,418.368026 C64.9861085,418.326276 65.0299961,418.284764 65.0739499,418.243312 C65.4047226,417.931367 65.7393339,417.622813 66.0776403,417.317805 C66.0956361,417.301581 66.1137449,417.285274 66.1318639,417.268978 C66.3001765,417.117599 66.4691874,416.967285 66.639102,416.817853 C66.6719497,416.788966 66.704491,416.76041 66.737066,416.731885 C66.9030509,416.586537 67.0699731,416.441962 67.237749,416.298236 C67.2543817,416.283987 67.2710013,416.269765 67.2876296,416.255552 C67.470253,416.099447 67.6538861,415.944345 67.8385206,415.790258 C78.7083885,406.718797 92.4152882,401.692757 106.76969,401.727167 L107.213844,401.729846 C107.510082,401.732709 107.806585,401.737728 108.103335,401.744912 L116.192272,401.940366 L116.184661,401.940403 L116.191121,401.940462 C118.364074,401.757864 120.558582,401.691458 122.766738,401.744912 L128.276928,401.878159 C128.660635,401.853411 129.046823,401.841627 129.434956,401.843097 L129.796644,401.844276 L128.410055,373.420109 L129.228496,373.42008 C129.079397,373.191487 128.798119,373.00115 128.351655,372.746388 C126.024699,371.418573 121.283398,370.60909 114.34311,370.60909 Z M49.725233,22.0159985 C44.022756,22.1608959 39.5099839,22.7317266 36.1869168,23.7284906 C34.5738729,24.212328 32.607857,24.9864821 30.288868,26.0509529 C36.8948811,26.9043949 42.6994604,27.6388293 47.7020005,28.2547545 C54.8608532,29.1361701 61.6054978,32.9528812 66.5255443,39.408472 C72.0501183,46.6572623 75.0260777,56.8120316 75.0260777,69.6313578 L75.0260777,304.215402 C75.0260777,316.737552 73.0690087,325.649822 68.9934206,332.083787 C65.445841,337.684207 60.8017945,340.99249 53.7599737,343.903287 C47.247864,346.595122 37.6761222,350.375352 25.0317469,355.249615 C28.3298966,359.617172 31.1959011,362.867756 33.6292467,365.002208 C36.8430889,367.821285 42.0645758,371.074437 49.2937091,374.761664 C49.7702148,374.8439 50.1902214,374.882785 50.5537288,374.878665 C50.7955544,374.715865 51.0545226,374.571613 51.3288211,374.447324 C52.075663,374.10892 52.811894,373.77496 53.5375093,373.445446 C53.5478882,373.437442 53.5590628,373.428796 53.5702689,373.420109 L53.5934165,373.420057 C67.2078802,367.237154 77.079815,362.621962 83.1838367,359.587584 C86.7760539,357.801854 90.9020179,352.838461 94.1070349,346.034892 C97.6359816,338.543688 99.6842934,329.696376 99.6842934,321.115583 L99.6842934,66.1079372 C99.6842934,43.1344024 91.1982757,29.1434252 75.7580835,26.1824993 L49.725233,22.0159985 Z M184.720451,280.735902 L110.545768,280.735902 L110.546074,321.115583 C110.546074,336.029761 105.272874,351.349225 97.642881,361.026088 C103.346002,360.173765 108.91277,359.747304 114.34311,359.747304 C123.007461,359.747304 129.399598,360.838634 133.734876,363.312443 C137.857364,365.66483 140.077214,369.283139 140.188001,373.525192 C154.605992,366.638729 164.825302,361.808866 170.845982,359.035554 C170.997218,358.894818 171.158547,358.761156 171.329356,358.6356 C179.632478,352.532268 184.705656,336.720152 184.705656,317.591218 L184.705876,315.679861 L184.705918,315.487742 L184.706398,313.812879 L184.706476,313.584547 L184.706926,312.371538 L184.707029,312.113857 L184.707482,311.029014 L184.707606,310.743696 L184.708003,309.852029 L184.708145,309.542517 L184.708617,308.53352 L184.708632,308.502774 L184.709148,307.453172 L184.709204,307.339055 L184.709653,306.420181 L184.709724,306.273286 L184.710188,305.322322 L184.71027,305.153414 L184.710787,304.089042 L184.710877,303.904346 L184.711335,302.957188 L184.711429,302.763911 L184.711806,301.982219 L184.711901,301.785285 L184.712376,300.7979 L184.712471,300.600769 L184.712938,299.623831 L184.71303,299.431076 L184.713479,298.487447 L184.713566,298.30364 L184.713985,297.416185 L184.714065,297.245899 L184.714581,296.136553 L184.714648,295.991407 L184.715059,295.086497 C184.717212,290.251016 184.719017,285.508501 184.720451,280.735902 L184.720451,280.735902 Z M21.7236082,35.8922312 L21.7236082,40.6194344 C22.7906146,39.9936919 24.0759971,39.7271722 25.3904409,39.9535594 C34.0863278,41.4512549 40.3660334,42.4983606 44.2133563,43.0924934 C54.7850423,44.7250537 61.941791,53.8967553 61.941791,69.7535849 L61.941791,300.687255 C61.941791,316.917848 57.6405831,325.049885 47.9232316,330.138447 C44.1010515,332.139961 38.2439077,335.114864 30.3413033,339.068773 L29.5018946,339.48859 C28.654931,339.912024 27.7852983,340.346307 26.8929852,340.791447 C25.1894143,341.641291 23.2532939,341.512441 21.7236082,340.618595 L21.7244576,344.883586 C33.9971211,340.149789 43.2966574,336.475227 49.6106797,333.865272 C54.767305,331.733737 57.6652584,329.66932 59.8176624,326.271407 C62.6335501,321.826079 64.1642975,314.855231 64.1642975,304.215402 L64.1642975,69.6313578 C64.1642975,59.0573154 61.8654148,51.2129138 57.8867105,45.9924574 C54.7541193,41.8821868 50.6540824,39.5620264 46.3746947,39.0351376 C39.6090999,38.2021408 31.3925286,37.1545507 21.7236082,35.8922312 Z M195.584998,268.280815 L195.585029,268.676472 L195.584597,271.119153 C195.584339,272.468019 195.584052,273.808378 195.583735,275.142834 C195.585433,275.196344 195.58624,275.250832 195.58624,275.30551 C195.58624,275.360919 195.585411,275.416134 195.583763,275.471144 C195.583136,277.635713 195.582537,279.785744 195.581865,281.931917 L195.580674,285.506612 C195.579555,288.684339 195.578274,291.867178 195.576838,295.091336 L195.576427,295.996309 L195.57636,296.141464 L195.575844,297.250869 L195.575764,297.421164 L195.575345,298.308659 L195.575258,298.492474 L195.574809,299.436139 L195.574717,299.628901 L195.574249,300.605872 L195.574155,300.803009 L195.57368,301.790422 L195.573585,301.987361 L195.573208,302.769073 L195.573114,302.962354 L195.572656,303.909532 L195.572566,304.094232 L195.572049,305.15862 L195.571967,305.327529 L195.571503,306.278503 L195.571432,306.425398 L195.570983,307.34427 L195.570927,307.458385 L195.570411,308.507944 L195.570396,308.538686 L195.569924,309.547273 L195.569782,309.856663 L195.569385,310.747969 L195.569261,311.033169 L195.568809,312.117538 L195.568706,312.3751 L195.568256,313.58751 L195.568178,313.815721 L195.567699,315.489558 L195.567656,315.68154 L195.567436,317.591218 C195.567436,325.692686 194.760995,333.35615 193.168545,340.242366 C199.821748,331.488453 205.220907,319.995987 205.220907,306.342808 L205.221231,276.465932 C205.14848,276.421884 205.076017,276.377775 205.003844,276.333605 C201.253921,274.038614 198.285416,271.577726 196.100807,268.910842 L195.624367,268.328927 L195.584998,268.280815 Z M21.7235528,49.9934051 L21.7235528,331.245363 C21.8278307,331.184466 21.9347443,331.126603 22.0443131,331.071943 C23.0789976,330.55578 24.0828802,330.054364 25.055941,329.567706 L25.8824448,329.154184 C33.5260212,325.328386 39.1966715,322.447259 42.8844403,320.516132 C45.7130858,319.034891 47.370846,317.545689 48.5863802,315.247551 C50.1946617,312.206869 51.0800108,307.571726 51.0800108,300.687255 L51.0800108,69.7535849 C51.0800108,63.7045486 49.865634,59.5483458 47.8519332,56.9676962 C46.430628,55.1462284 44.6066391,54.1437653 42.5556483,53.8270362 C38.6310204,53.2209648 32.3001575,52.165329 23.5468574,50.6577456 C22.8845755,50.5436806 22.2711076,50.3141618 21.7235528,49.9934051 L21.7235528,49.9934051 Z M110.545158,238.643983 L110.545158,269.874116 L184.723037,269.874116 L184.723441,267.445509 L184.723776,264.969083 L184.724553,263.720983 L184.724553,258.652767 L184.724553,254.691985 C184.466174,254.358092 184.206577,254.021755 183.94534,253.68242 C182.338647,251.595399 180.863264,249.64028 179.527908,247.822983 C171.986458,259.205396 160.306451,266.256371 147.427263,266.256371 C130.977578,266.256371 117.017019,254.896954 110.545158,238.643983 L110.545158,238.643983 Z M174.119315,208.165111 L142.115478,208.165111 C139.927098,209.963849 138.770871,213.116483 138.770871,218.1726 C138.770871,224.006921 140.394571,228.457374 143.64065,231.835257 L143.697775,231.893769 L144.023922,232.056176 C148.375488,234.192241 152.608914,235.107312 156.794377,234.859479 L157.116243,234.838122 C160.53453,234.586896 164.39628,233.512892 168.683411,231.585406 C166.380183,229.32294 163.529847,227.999747 160.777802,227.972035 L160.601963,227.972032 C159.840629,227.979701 159.087898,228.087422 158.357488,228.302792 C157.869871,228.446572 157.378148,228.518738 156.893587,228.525429 L156.748445,228.525478 C154.429969,228.495033 152.302491,226.970171 151.612351,224.629609 C150.764053,221.752668 152.408592,218.732766 155.285532,217.884468 C157.055237,217.36265 158.839885,217.108199 160.607626,217.095519 L160.919399,217.095786 C169.436024,217.171396 177.515688,222.837142 181.584009,231.220648 C182.983678,234.104919 186.941638,239.768824 192.55207,247.056523 C196.411537,252.069796 199.926158,256.440192 204.503325,262.027817 C206.448751,264.402718 209.794804,266.828378 214.54786,269.201528 L214.58767,269.221384 L214.796169,269.107819 C217.431521,267.65975 219.506012,266.428992 221.001961,265.430362 L221.039778,265.405183 C221.143481,265.335713 221.244766,265.26713 221.343631,265.19943 L221.394036,265.164445 L221.395666,265.163359 L221.495403,265.094828 C221.644112,264.991658 221.7836,264.892832 221.913604,264.798757 L221.962819,264.762621 L221.951771,264.695389 C221.769813,263.598165 221.499027,262.090776 221.172505,260.406657 L221.133056,260.203729 L221.099682,260.034423 L221.023596,259.6453 L220.993035,259.490698 C220.947463,259.260274 220.901211,259.027928 220.854527,258.794812 L220.739378,258.22255 C220.538366,257.228204 220.333187,256.236917 220.142921,255.337391 C220.141412,255.330264 220.139854,255.322902 220.138297,255.31555 L220.10362,255.151898 C220.080049,255.040826 220.056732,254.93129 220.033707,254.823466 C219.902641,254.210551 219.783373,253.663343 219.682433,253.21078 C219.678563,253.19281 219.674664,253.175363 219.670788,253.158037 L219.639286,253.018136 C219.616911,252.918669 219.595596,252.824637 219.575426,252.736408 L219.573602,252.729872 C219.570867,252.72424 219.569523,252.721221 219.567912,252.717546 C219.481095,252.519478 219.344286,252.236292 219.163942,251.885647 C218.761695,251.103551 218.184972,250.066541 217.470916,248.844513 C215.95549,246.251026 213.930871,243.008631 211.724471,239.654451 C206.53478,231.76506 201.213179,224.545713 197.249877,220.204197 C192.159327,214.627862 185.87152,210.850305 180.272546,209.164941 C179.60597,209.116739 178.960129,208.944874 178.365651,208.666392 C176.867766,208.334088 175.438873,208.165111 174.119315,208.165111 L174.119315,208.165111 Z M147.427263,180.950616 C131.175626,180.950616 117.547184,197.412704 117.547184,218.1726 C117.547184,238.932496 131.175626,255.394584 147.427263,255.394584 C156.045345,255.394584 164.125588,250.744039 169.733958,242.902583 C165.597193,244.467365 161.659923,245.395268 157.912377,245.670692 C151.184559,246.16515 144.488167,244.626094 137.917265,241.131381 C137.483714,240.900799 137.08344,240.612482 136.727385,240.274312 C130.848003,234.690265 127.909091,227.200625 127.909091,218.1726 C127.909091,208.835964 131.100815,201.86655 137.668165,198.078861 C138.091293,197.824418 138.551585,197.625645 139.039152,197.49309 C139.06097,197.487188 139.082672,197.481403 139.104392,197.475759 C139.126696,197.470025 139.149328,197.464331 139.172015,197.458779 C139.198604,197.452109 139.22501,197.445823 139.251439,197.439742 C139.27308,197.435029 139.294636,197.430237 139.316241,197.425574 C139.34855,197.418234 139.381147,197.41147 139.413771,197.405014 C139.421106,197.404023 139.428344,197.402615 139.435589,197.401221 C139.80848,197.328554 140.184871,197.296604 140.558629,197.303233 L172.155975,197.303036 C166.66204,187.234125 157.433027,180.950616 147.427263,180.950616 L147.427263,180.950616 Z M190.804865,34.3518653 L190.985016,34.7112671 C193.949781,40.7126294 195.567436,47.8747083 195.567436,56.0493115 L195.567173,110.734029 C195.5798,110.885134 195.58624,111.037997 195.58624,111.192364 C195.58624,111.346731 195.5798,111.499594 195.567173,111.650698 L195.567346,204.575423 C198.987955,206.839362 202.270938,209.603281 205.221888,212.82655 L205.220907,74.4724136 C205.220907,55.2534407 200.140385,41.8108979 190.804865,34.3518653 Z M184.705115,116.623 L110.545158,116.623 L110.545158,197.701218 C117.017019,181.448246 130.977578,170.08883 147.427263,170.08883 C163.924052,170.08883 178.322764,181.643719 184.705936,198.715372 L184.705115,116.623 Z M135.539841,21.7236164 L132.792898,23.5114737 L153.753364,26.4354951 L97.9184591,26.4351973 C106.202132,35.3896387 110.546074,49.0742764 110.546074,66.1079372 L110.545768,105.761214 L184.705656,105.761214 L184.705656,56.0493115 C184.705656,40.2625957 177.553639,30.2824899 165.95186,26.3185255 C165.696237,26.2311874 165.45135,26.1266758 165.218047,26.006719 C156.241129,24.4836171 146.348197,23.0560515 135.539841,21.7236164 L135.539841,21.7236164 Z" id="Shape"></path>
        </g>
    </g>
</svg>