<svg width="24" height="40" viewBox="0 0 24 40" fill="none" xmlns="http://www.w3.org/2000/svg">
<path d="M5.99999 2.5H18L15.6 1.90735e-06H8.39999L5.99999 2.5Z" fill="#667799"/>
<path fill-rule="evenodd" clip-rule="evenodd" d="M2.40007 2.50003H21.6001C22.2366 2.50003 22.847 2.76342 23.2971 3.23226C23.7472 3.70111 24.0001 4.33699 24.0001 5.00003V37.5C24.0001 38.1631 23.7472 38.799 23.2971 39.2678C22.847 39.7366 22.2366 40 21.6001 40H2.40007C1.76355 40 1.1531 39.7366 0.703009 39.2678C0.252921 38.799 6.67572e-05 38.1631 6.67572e-05 37.5V5.00003C6.67572e-05 4.33699 0.252921 3.70111 0.703009 3.23226C1.1531 2.76342 1.76355 2.50003 2.40007 2.50003ZM21.6001 37.5V5.00003H2.40007V37.5H21.6001Z" fill="#667799"/>
<path d="M4 32H20V36H4V32Z" fill="url(#paint0_linear_2134_36505)"/>
<defs>
<linearGradient id="paint0_linear_2134_36505" x1="0.279758" y1="-0.886207" x2="0.279758" y2="22.5543" gradientUnits="userSpaceOnUse">
<stop stop-color="#85FDB9"/>
<stop offset="1" stop-color="#44EE99"/>
</linearGradient>
</defs>
</svg>
