<svg width="48" height="48" viewBox="0 0 48 48" fill="none" xmlns="http://www.w3.org/2000/svg">
<path d="M18 6.5H30L27.6 4H20.4L18 6.5Z" fill="#667799"/>
<path fill-rule="evenodd" clip-rule="evenodd" d="M14.4001 6.50003H33.6001C34.2366 6.50003 34.847 6.76342 35.2971 7.23226C35.7472 7.70111 36.0001 8.33699 36.0001 9.00003V41.5C36.0001 42.1631 35.7472 42.799 35.2971 43.2678C34.847 43.7366 34.2366 44 33.6001 44H14.4001C13.7635 44 13.1531 43.7366 12.703 43.2678C12.2529 42.799 12.0001 42.1631 12.0001 41.5V9.00003C12.0001 8.33699 12.2529 7.70111 12.703 7.23226C13.1531 6.76342 13.7635 6.50003 14.4001 6.50003ZM33.6001 41.5V9.00003H14.4001V41.5H33.6001Z" fill="#667799"/>
</svg>
