<svg width="36" height="40" viewBox="0 0 36 40" fill="none" xmlns="http://www.w3.org/2000/svg">
<path fill-rule="evenodd" clip-rule="evenodd" d="M17.9665 0.200323C18.4245 0.200323 18.8239 0.511452 18.9361 0.955506L20.0296 5.28622C20.0347 5.28827 20.0397 5.29037 20.0448 5.2925L31.9185 10.3059C32.3568 10.491 32.6041 10.9592 32.5097 11.4256C32.4152 11.8919 32.0053 12.2271 31.5295 12.2271H21.7822L22.623 15.5573L31.9863 20.3643C32.3971 20.5752 32.61 21.0399 32.5016 21.4888C32.3931 21.9377 31.9913 22.2539 31.5295 22.2539H24.3139L28.2898 38H34.5621C35.1143 38 35.5621 38.4477 35.5621 39C35.5621 39.5523 35.1143 40 34.5621 40H1.38013C0.827842 40 0.380127 39.5523 0.380127 39C0.380127 38.4477 0.827842 38 1.38013 38H7.64321L11.6191 22.2539H4.40356C3.94178 22.2539 3.54004 21.9377 3.43155 21.4888C3.32306 21.0399 3.53604 20.5752 3.94685 20.3643L13.31 15.5574L14.1509 12.2271H4.40356C3.92784 12.2271 3.51797 11.892 3.42348 11.4257C3.329 10.9595 3.57607 10.4912 4.01427 10.306L15.8765 5.29264C15.8858 5.28868 15.8952 5.28487 15.9047 5.28121L16.9969 0.955507C17.1091 0.511453 17.5085 0.200324 17.9665 0.200323ZM15.2911 7.71132L9.33841 10.2271H14.6559L15.2911 7.71132ZM16.7186 10.2271L17.4795 7.21375H18.4535L19.2144 10.2271H16.7186ZM16.2136 12.2271L15.4528 15.2405H20.4803L19.7194 12.2271H16.2136ZM20.9853 17.2405H14.9478L14.1869 20.2539H21.7462L20.9853 17.2405ZM20.901 22.2539H15.0318L17.9664 25.7911L20.901 22.2539ZM16.6671 27.3572L13.3905 23.4078L10.5235 34.7623L16.6671 27.3572ZM10.4361 38L17.9665 28.9233L25.497 38H10.4361ZM25.4096 34.7624L19.2658 27.3572L22.5425 23.4077L25.4096 34.7624ZM12.1241 20.2539L12.6578 18.1404L8.54097 20.2539H12.1241ZM23.8089 20.2539L23.2753 18.1403L27.3921 20.2539H23.8089ZM21.2772 10.2271H26.5903L20.6431 7.7161L21.2772 10.2271Z" fill="#667799"/>
</svg>
