<svg width="64" height="64" viewBox="0 0 64 64" fill="none" xmlns="http://www.w3.org/2000/svg">
<path fill-rule="evenodd" clip-rule="evenodd" d="M12.3823 16H51.6177L58.6667 50.6667H5.33333L12.3823 16Z" fill="#44EE99"/>
<path fill-rule="evenodd" clip-rule="evenodd" d="M12.3823 16H51.6177L58.6667 50.6667H5.33333L12.3823 16ZM12.7985 26.5L14.4252 18.5H21.1756L20.4483 26.5H12.7985ZM12.1885 29.5L10.6296 37.1667H19.4786L20.1756 29.5H12.1885ZM10.0196 40.1667L8.39287 48.1667H18.4786L19.2059 40.1667H10.0196ZM21.491 48.1667H30.5V40.1667H22.2183L21.491 48.1667ZM33.5 48.1667H42.5089L41.7817 40.1667H33.5V48.1667ZM45.5213 48.1667H55.6072L53.9805 40.1667H44.794L45.5213 48.1667ZM53.3705 37.1667L51.8116 29.5H43.8243L44.5213 37.1667H53.3705ZM51.2016 26.5L49.5749 18.5H42.8243L43.5516 26.5H51.2016ZM39.8119 18.5H33.5V26.5H40.5392L39.8119 18.5ZM30.5 18.5H24.188L23.4607 26.5H30.5V18.5ZM30.5 37.1667H22.491L23.188 29.5H30.5V37.1667ZM33.5 37.1667V29.5H40.812L41.5089 37.1667H33.5Z" fill="#334477"/>
</svg>
