<svg width="48" height="48" viewBox="0 0 48 48" fill="none" xmlns="http://www.w3.org/2000/svg">
<path d="M31.5032 19H19.6483C19.4485 19.0055 19.2547 19.0762 19.0916 19.2031C18.9285 19.3299 18.8035 19.5073 18.7324 19.7125L16.036 28.2875C16.036 28.2875 15.8085 29 16.4968 29H28.3517C28.5515 28.9945 28.7453 28.9238 28.9084 28.7969C29.0715 28.6701 29.1965 28.4927 29.2676 28.2875L31.964 19.7125C31.964 19.7125 32.1915 19 31.5032 19Z" fill="#FF3333"/>
<path fill-rule="evenodd" clip-rule="evenodd" d="M42 10H6V38H42V10ZM6 8C4.89543 8 4 8.89543 4 10V38C4 39.1046 4.89543 40 6 40H42C43.1046 40 44 39.1046 44 38V10C44 8.89543 43.1046 8 42 8H6Z" fill="#334477"/>
</svg>
